<svg width="48" height="48" viewBox="0 0 48 48" fill="none" xmlns="http://www.w3.org/2000/svg">
<path d="M24 40.4179C26.156 40.4179 28.291 39.9933 30.2829 39.1682C32.2748 38.3431 34.0848 37.1338 35.6093 35.6092C37.1339 34.0846 38.3432 32.2747 39.1683 30.2828C39.9934 28.2909 40.4181 26.1559 40.4181 23.9999C40.4181 21.8438 39.9934 19.7089 39.1683 17.7169C38.3432 15.725 37.1339 13.9151 35.6093 12.3905C34.0848 10.866 32.2748 9.65664 30.2829 8.83155C28.291 8.00647 26.156 7.5818 24 7.5818C19.6457 7.5818 15.4697 9.31156 12.3907 12.3905C9.31168 15.4695 7.58193 19.6455 7.58193 23.9999C7.58193 28.3542 9.31168 32.5302 12.3907 35.6092C15.4697 38.6882 19.6457 40.4179 24 40.4179ZM24 43.1289C18.9267 43.1289 14.0611 41.1135 10.4737 37.5261C6.88634 33.9387 4.87097 29.0732 4.87097 23.9999C4.87097 18.9265 6.88634 14.061 10.4737 10.4736C14.0611 6.88622 18.9267 4.87085 24 4.87085C29.0733 4.87085 33.9389 6.88622 37.5263 10.4736C41.1136 14.061 43.129 18.9265 43.129 23.9999C43.129 29.0732 41.1136 33.9387 37.5263 37.5261C33.9389 41.1135 29.0733 43.1289 24 43.1289Z" fill="#14C042" stroke="#14C042" stroke-width="0.0234375"/>
<path d="M23.6424 30.82L23.6424 30.82C23.5323 30.9303 23.4016 31.0179 23.2577 31.0776C23.1138 31.1373 22.9595 31.168 22.8037 31.168C22.6479 31.168 22.4936 31.1373 22.3497 31.0776C22.2058 31.0179 22.075 30.9303 21.965 30.82L21.965 30.82L15.9835 24.8385C15.8734 24.7284 15.786 24.5976 15.7264 24.4537C15.6668 24.3098 15.6361 24.1556 15.6361 23.9998C15.6361 23.8441 15.6668 23.6898 15.7264 23.5459C15.786 23.402 15.8734 23.2713 15.9835 23.1611C16.0936 23.051 16.2244 22.9636 16.3683 22.904C16.5122 22.8444 16.6664 22.8137 16.8222 22.8137C16.978 22.8137 17.1322 22.8444 17.2761 22.904C17.42 22.9636 17.5508 23.051 17.6609 23.1611L22.7954 28.298L22.8037 28.3063L22.812 28.298L32.7317 18.376C32.9541 18.1535 33.2558 18.0286 33.5703 18.0286C33.8849 18.0286 34.1866 18.1535 34.409 18.376C34.6315 18.5984 34.7564 18.9001 34.7564 19.2147C34.7564 19.5292 34.6315 19.8309 34.409 20.0533L23.6424 30.82Z" fill="#14C042" stroke="#14C042" stroke-width="0.0234375"/>
</svg>
